<svg width="58" height="55" viewBox="0 0 58 55" fill="none" xmlns="http://www.w3.org/2000/svg">
<path fill-rule="evenodd" clip-rule="evenodd" d="M29.258 0.780212C13.608 0.780212 0.91629 12.8395 0.91629 27.6936C0.91629 42.5568 13.608 54.6163 29.258 54.6163C44.8125 54.6163 57.5042 42.5568 57.5042 27.6936C57.5042 12.8395 44.8125 0.780212 29.258 0.780212ZM29.258 6.07946C41.7588 6.07946 51.9695 15.7613 51.9695 27.6936C51.9695 39.635 41.7588 49.317 29.258 49.317C16.6617 49.317 6.45103 39.635 6.45103 27.6936C6.45103 15.7613 16.6617 6.07946 29.258 6.07946ZM31.4528 39.8347H26.3952V44.653H31.4528V39.8347ZM24.3912 22.2039C24.3912 19.8265 26.3952 17.8937 28.8763 17.8937C31.3573 17.8937 33.4567 19.8265 33.4567 22.2039C33.4567 23.4833 32.7887 24.3727 32.0253 25.1258C31.3573 25.8517 30.4985 26.4687 29.7351 27.0857C27.7311 28.7191 26.2997 30.4521 26.2997 32.639V35.0982H31.4528V32.639C31.4528 32.1762 31.8345 31.8859 32.2162 31.541C32.7887 31.0147 33.4567 30.5158 34.1247 29.9713C36.4149 28.093 38.6098 25.8244 38.6098 22.2039C38.6098 17.1134 34.2201 12.9757 28.8763 12.9757C23.5324 12.9757 19.1427 17.1134 19.1427 22.2039V24.6631H24.3912V22.2039Z" fill="black"/>
</svg>
