<svg width="56" height="54" viewBox="0 0 56 54" fill="none" xmlns="http://www.w3.org/2000/svg">
<path fill-rule="evenodd" clip-rule="evenodd" d="M53.3434 48.7855C53.3434 48.604 53.1526 48.4588 52.9617 48.4588C49.0492 48.4588 11.5466 48.4588 7.53869 48.4588C7.34784 48.4588 7.25241 48.604 7.25241 48.7855C7.25241 49.7292 7.25241 52.4878 7.25241 53.4315C7.25241 53.6129 7.34784 53.7581 7.53869 53.7581C11.5466 53.7581 49.0492 53.7581 52.9617 53.7581C53.1526 53.7581 53.3434 53.6129 53.3434 53.4315V48.7855ZM53.3434 34.3941C53.3434 34.2127 53.1526 34.0675 52.9617 34.0675C49.0492 34.0675 11.5466 34.0675 7.53869 34.0675C7.34784 34.0675 7.25241 34.2127 7.25241 34.3941V39.0401C7.25241 39.2216 7.34784 39.3668 7.53869 39.3668C11.5466 39.3668 49.0492 39.3668 52.9617 39.3668C53.1526 39.3668 53.3434 39.2216 53.3434 39.0401C53.3434 38.0964 53.3434 35.3378 53.3434 34.3941ZM25.6697 19.2496C25.7652 19.1498 25.956 19.0954 26.0514 19.0954C28.2462 19.0954 46.5681 19.0954 46.5681 19.0954C48.2858 19.0954 49.7172 17.7526 49.7172 16.0829C49.7172 14.4224 48.2858 13.0703 46.5681 13.0703C46.5681 13.0703 30.2502 13.0703 27.6737 13.0703C27.5783 13.0703 27.4828 13.034 27.4828 12.9795C27.3874 12.916 27.3874 12.8343 27.3874 12.7527C27.3874 11.809 27.3874 9.04152 27.3874 8.09783C27.3874 8.01616 27.3874 7.9345 27.4828 7.87098C27.4828 7.81653 27.5783 7.78024 27.6737 7.78024C30.2502 7.78024 46.5681 7.78024 46.5681 7.78024C51.4349 7.78024 55.3474 11.5006 55.3474 16.0829C55.3474 20.6744 51.4349 24.3947 46.5681 24.3947C46.5681 24.3947 24.8109 24.3855 20.8984 24.3764C20.803 24.3764 20.7076 24.313 20.7076 24.2222C20.6121 24.1406 20.6121 24.0407 20.7076 23.9681C21.8527 22.8883 25.0017 19.9392 25.6697 19.2496ZM12.8826 7.35365C12.7872 7.35365 12.6917 7.32643 12.6917 7.26291C12.5963 7.1994 12.5963 7.11773 12.5963 7.03606C12.5963 5.90182 12.5963 2.12707 12.5963 0.992822C12.5963 0.911156 12.5009 0.82949 12.5009 0.765972C12.4054 0.711528 12.31 0.675232 12.2146 0.675232C11.2603 0.675232 8.30211 0.675232 7.34784 0.675232C7.25241 0.675232 7.15699 0.711528 7.06156 0.765972C7.06156 0.82949 6.96613 0.911156 6.96613 0.992822C6.96613 2.12707 6.96613 5.90182 6.96613 7.03606C6.96613 7.11773 6.96613 7.1994 6.87071 7.26291C6.87071 7.32643 6.77528 7.35365 6.67985 7.35365H0.286279C0.190853 7.35365 0.0954265 7.38991 0.0954265 7.45343C0 7.50788 0 7.58954 0 7.68028C0 8.62398 0 11.3826 0 12.3263C0 12.417 0 12.4987 0.0954265 12.5531C0.0954265 12.6166 0.190853 12.6529 0.286279 12.6529C1.52682 12.6529 5.43931 12.6529 6.67985 12.6529C6.77528 12.6529 6.87071 12.6801 6.87071 12.7436C6.96613 12.8072 6.96613 12.8888 6.96613 12.9705C6.96613 14.1047 6.96613 17.8795 6.96613 19.0137C6.96613 19.0954 7.06156 19.1771 7.06156 19.2406C7.15699 19.3041 7.25241 19.3313 7.34784 19.3313C8.30211 19.3313 11.2603 19.3313 12.2146 19.3313C12.31 19.3313 12.4054 19.3041 12.5009 19.2406C12.5009 19.1771 12.5963 19.0954 12.5963 19.0137C12.5963 17.8795 12.5963 14.1047 12.5963 12.9705C12.5963 12.8888 12.5963 12.8072 12.6917 12.7436C12.6917 12.6801 12.7872 12.6529 12.8826 12.6529C14.1231 12.6529 18.0356 12.6529 19.2762 12.6529C19.3716 12.6529 19.467 12.6166 19.467 12.5531C19.5624 12.4987 19.5624 12.417 19.5624 12.3263C19.5624 11.3826 19.5624 8.62398 19.5624 7.68028C19.5624 7.58954 19.5624 7.50788 19.467 7.45343C19.467 7.38991 19.3716 7.35365 19.2762 7.35365C18.0356 7.35365 14.1231 7.35365 12.8826 7.35365Z" fill="black"/>
</svg>
