<svg width="54" height="54" viewBox="0 0 54 54" fill="none" xmlns="http://www.w3.org/2000/svg">
<path fill-rule="evenodd" clip-rule="evenodd" d="M17.6041 36.0114H14.159C9.18729 36.0114 5.1509 39.8497 5.1509 44.5772C5.1509 49.3048 9.18729 53.1431 14.159 53.1431C19.1307 53.1431 23.1679 49.3048 23.1679 44.5772C23.1679 44.5772 23.1679 26.1481 23.1679 22.6818C23.1679 22.5729 23.1008 22.473 23.0053 22.4277C22.9004 22.3732 22.7765 22.3822 22.681 22.4457C21.5455 23.1807 18.7207 25.0047 17.8523 25.5582C17.6996 25.658 17.6041 25.8304 17.6041 26.0119C17.6041 27.6906 17.6041 36.0114 17.6041 36.0114ZM47.94 36.0114H44.4957C39.524 36.0114 35.4868 39.8497 35.4868 44.5772C35.4868 49.3048 39.524 53.1431 44.4957 53.1431C49.4674 53.1431 53.5038 49.3048 53.5038 44.5772C53.5038 44.5772 53.5038 11.5208 53.5038 7.90025C53.5038 7.81858 53.4656 7.73692 53.4084 7.6734C53.3416 7.60988 53.2555 7.58266 53.1601 7.58266C50.3832 7.58266 31.2693 7.58266 28.3969 7.58266C28.1965 7.58266 28.0346 7.72777 28.0346 7.91832C28.0346 8.88017 28.0346 11.5752 28.0346 12.528C28.0346 12.6187 28.0722 12.7094 28.139 12.7729C28.2058 12.8364 28.3015 12.8727 28.3969 12.8727C30.8589 12.8727 45.2018 12.8727 47.5971 12.8727C47.6925 12.8727 47.7784 12.909 47.8356 12.9634C47.9024 13.0269 47.94 13.1086 47.94 13.1903C47.94 15.9851 47.94 36.0114 47.94 36.0114ZM17.6041 44.5772C17.6041 43.325 17.6041 41.3016 17.6041 41.3016H14.159C12.26 41.3016 10.7147 42.7715 10.7147 44.5772C10.7147 46.383 12.26 47.8529 14.159 47.8529C16.058 47.8529 17.6041 46.383 17.6041 44.5772ZM47.94 44.5772C47.94 43.325 47.94 41.3016 47.94 41.3016H44.4957C42.5967 41.3016 41.0506 42.7715 41.0506 44.5772C41.0506 46.383 42.5967 47.8529 44.4957 47.8529C46.3947 47.8529 47.94 46.383 47.94 44.5772ZM13.2525 7.58266C13.1666 7.58266 13.0905 7.54636 13.0333 7.49192C12.9665 7.43747 12.9379 7.35577 12.9379 7.27411C12.9379 6.16708 12.9379 2.30156 12.9379 1.19453C12.9379 1.11287 12.8997 1.0402 12.8424 0.985759C12.7852 0.931315 12.7091 0.89502 12.6232 0.89502C11.6403 0.89502 8.66274 0.89502 7.68939 0.89502C7.60351 0.89502 7.51777 0.931315 7.46052 0.985759C7.40326 1.0402 7.37478 1.11287 7.37478 1.19453C7.37478 2.30156 7.37478 6.16708 7.37478 7.27411C7.37478 7.35577 7.33661 7.43747 7.27936 7.49192C7.2221 7.54636 7.13562 7.58266 7.04974 7.58266C5.88553 7.58266 1.82037 7.58266 0.656162 7.58266C0.570278 7.58266 0.494235 7.60991 0.436979 7.66436C0.370181 7.7188 0.341553 7.80033 0.341553 7.88199C0.341553 8.80754 0.341553 11.6387 0.341553 12.5734C0.341553 12.655 0.370181 12.7275 0.436979 12.7819C0.494235 12.8364 0.570278 12.8727 0.656162 12.8727C1.82037 12.8727 5.88553 12.8727 7.04974 12.8727C7.13562 12.8727 7.2221 12.8999 7.27936 12.9634C7.33661 13.0179 7.37478 13.0905 7.37478 13.1722V19.2518C7.37478 19.3334 7.40326 19.4151 7.46052 19.4696C7.51777 19.524 7.60351 19.5513 7.68939 19.5513C8.66274 19.5513 11.6403 19.5513 12.6232 19.5513C12.7091 19.5513 12.7852 19.524 12.8424 19.4696C12.8997 19.4151 12.9379 19.3334 12.9379 19.2518C12.9379 18.1447 12.9379 14.2792 12.9379 13.1722C12.9379 13.0905 12.9665 13.0179 13.0333 12.9634C13.0905 12.8999 13.1666 12.8727 13.2525 12.8727C14.4167 12.8727 18.4818 12.8727 19.646 12.8727C19.7319 12.8727 19.8089 12.8364 19.8757 12.7819C19.9329 12.7275 19.9614 12.655 19.9614 12.5734C19.9614 11.6387 19.9614 8.80754 19.9614 7.88199C19.9614 7.80033 19.9329 7.7188 19.8757 7.66436C19.8089 7.60991 19.7319 7.58266 19.646 7.58266C18.4818 7.58266 14.4167 7.58266 13.2525 7.58266Z" fill="black"/>
</svg>
