<svg width="30" height="25" viewBox="0 0 59 50" fill="none" xmlns="http://www.w3.org/2000/svg">
<path fill="#CACACA" fill-rule="evenodd" clip-rule="evenodd" d="M9.93571 49.2968H14.6116V44.3786H7.3592V49.2968H9.93571ZM58.6032 6.71246C58.6032 3.40953 55.8359 0.732666 52.3051 0.732666H28.2576C24.7268 0.732666 21.9595 3.40953 21.9595 6.71246V43.2716C21.9595 46.5745 24.7268 49.2514 28.2576 49.2514H52.3051C55.8359 49.2514 58.6032 46.5745 58.6032 43.2716V6.71246ZM53.4502 6.71246V43.2716C53.4502 43.8614 52.9731 44.3422 52.3051 44.3422H28.2576C27.5896 44.3422 27.1125 43.8614 27.1125 43.2716V6.71246C27.1125 6.12265 27.5896 5.64166 28.2576 5.64166H52.3051C52.9731 5.64166 53.4502 6.12265 53.4502 6.71246ZM40.2813 25.0783C44.3847 25.0783 47.6292 28.2178 47.6292 32.0923C47.6292 35.9669 44.3847 39.1157 40.2813 39.1157C36.178 39.1157 32.9335 35.9669 32.9335 32.0923C32.9335 28.2178 36.178 25.0783 40.2813 25.0783ZM12.0351 0.732666H6.50036C2.96958 0.732666 0.202209 3.39138 0.202209 6.66709V29.2794C0.202209 32.5551 2.96958 35.2138 6.50036 35.2138H14.6116V30.3048H6.50036C5.83237 30.3048 5.35524 29.842 5.35524 29.2794V6.66709C5.35524 6.1045 5.83237 5.64166 6.50036 5.64166H14.6116V0.732666H12.0351ZM40.2813 10.9409C42.2853 10.9409 44.003 12.5107 44.003 14.4434C44.003 16.3853 42.2853 17.9552 40.2813 17.9552C38.2774 17.9552 36.5597 16.3853 36.5597 14.4434C36.5597 12.5107 38.2774 10.9409 40.2813 10.9409Z" />
</svg>
