<svg width="50" height="48" viewBox="0 0 50 48" fill="none" xmlns="http://www.w3.org/2000/svg">
<path fill-rule="evenodd" clip-rule="evenodd" d="M5.87629 38.566V35.4264C5.87629 33.9655 4.63575 32.7767 3.10892 32.7767C1.5821 32.7767 0.341553 33.9655 0.341553 35.4264V47.522H13.0333C14.5601 47.522 15.8006 46.3333 15.8006 44.8724C15.8006 43.4115 14.5601 42.2319 13.0333 42.2319H9.8842L20.0948 32.5137C21.1445 31.4793 21.1445 29.8005 20.0948 28.7661C18.9497 27.7407 17.232 27.7407 16.1824 28.7751L5.87629 38.566ZM40.1344 5.92693L29.9238 15.6451C28.8741 16.6796 28.8741 18.3491 29.9238 19.3836C31.0689 20.418 32.7866 20.4089 33.8363 19.3745L44.1423 9.58364V12.7324C44.1423 14.1933 45.3829 15.3729 46.9097 15.3729C48.4365 15.3729 49.6771 14.1933 49.6771 12.7324V0.627686H36.9853C35.4585 0.627686 34.218 1.81631 34.218 3.27722C34.218 4.73813 35.4585 5.92693 36.9853 5.92693H40.1344Z" fill="#CACACA"/>
</svg>
