<svg width="58" height="47" viewBox="0 0 58 47" fill="none" xmlns="http://www.w3.org/2000/svg">
<path fill-rule="evenodd" clip-rule="evenodd" d="M14.0902 46.8247C5.88349 42.1153 0.348755 33.5314 0.348755 23.7406C0.348755 13.9407 5.88349 5.36574 14.0902 0.656342L16.8575 5.26582C10.3685 9.06782 5.97892 15.9188 5.97892 23.7406C5.97892 31.5533 10.3685 38.4133 16.8575 42.2062L14.0902 46.8247ZM40.5233 42.2062C47.0123 38.4133 51.4019 31.5533 51.4019 23.7406C51.4019 15.9188 47.0123 9.06782 40.5233 5.26582L43.2907 0.656342C51.4974 5.36574 57.0321 13.9407 57.0321 23.7406C57.0321 33.5314 51.4974 42.1153 43.2907 46.8247L40.5233 42.2062ZM19.8158 37.297C15.0444 34.4659 11.8954 29.4481 11.8954 23.7406C11.8954 18.024 15.0444 13.0061 19.8158 10.175L22.4877 14.7935C19.4341 16.7081 17.4301 20.0021 17.4301 23.7406C17.4301 27.4791 19.4341 30.7639 22.4877 32.6785L19.8158 37.297ZM34.8931 32.6785C37.9468 30.7639 39.9508 27.4791 39.9508 23.7406C39.9508 20.0021 37.9468 16.7081 34.8931 14.7935L37.5651 10.175C42.3364 13.0061 45.4855 18.024 45.4855 23.7406C45.4855 29.4481 42.3364 34.4659 37.5651 37.297L34.8931 32.6785ZM28.6904 18.9675C31.4578 18.9675 33.748 21.1092 33.748 23.7406C33.748 26.3721 31.4578 28.5045 28.6904 28.5045C25.9231 28.5045 23.6328 26.3721 23.6328 23.7406C23.6328 21.1092 25.9231 18.9675 28.6904 18.9675Z" fill="black"/>
</svg>
