<svg width="58" height="55" viewBox="0 0 58 55" fill="none" xmlns="http://www.w3.org/2000/svg">
<path fill-rule="evenodd" clip-rule="evenodd" d="M29.1625 0.808899C13.608 0.808899 0.91629 12.8682 0.91629 27.7223C0.91629 42.5764 13.608 54.6448 29.1625 54.6448C44.8125 54.6448 57.5042 42.5764 57.5042 27.7223C57.5042 12.8682 44.8125 0.808899 29.1625 0.808899ZM29.1625 6.10814C41.7588 6.10814 51.9695 15.79 51.9695 27.7223C51.9695 39.6546 41.7588 49.3457 29.1625 49.3457C16.6617 49.3457 6.45103 39.6546 6.45103 27.7223C6.45103 15.79 16.6617 6.10814 29.1625 6.10814ZM19.2382 30.3719H41.9497V25.0818H16.4708V30.3719H19.2382Z" fill="black"/>
</svg>
