<?xml version="1.0" standalone="no"?>
<!DOCTYPE svg PUBLIC "-//W3C//DTD SVG 20010904//EN"
 "http://www.w3.org/TR/2001/REC-SVG-20010904/DTD/svg10.dtd">
<svg version="1.0" xmlns="http://www.w3.org/2000/svg"
 width="24.000000pt" height="24.000000pt" viewBox="0 0 24.000000 24.000000"
 preserveAspectRatio="xMidYMid meet">

<g transform="translate(0.000000,24.000000) scale(0.100000,-0.100000)"
fill="#000000" stroke="none">
<path d="M63 170 c-28 -28 -45 -50 -37 -50 10 0 14 -13 14 -45 0 -45 0 -45 35
-45 32 0 35 2 35 30 0 17 5 30 10 30 6 0 10 -13 10 -30 0 -28 3 -30 35 -30 35
0 35 0 35 45 0 33 4 45 14 45 8 0 -9 23 -38 50 -29 28 -55 50 -57 50 -2 0 -27
-23 -56 -50z m89 -7 c22 -21 28 -36 28 -70 0 -32 -4 -43 -15 -43 -10 0 -15 10
-15 30 0 27 -3 30 -30 30 -27 0 -30 -3 -30 -30 0 -20 -5 -30 -15 -30 -11 0
-15 11 -15 42 0 32 6 49 27 70 15 15 29 28 32 28 3 0 18 -12 33 -27z"/>
</g>
</svg>
