<svg width="59" height="54" viewBox="0 0 59 54" fill="none" xmlns="http://www.w3.org/2000/svg">
<path fill-rule="evenodd" clip-rule="evenodd" d="M5.32068 28.3355C5.32068 28.3355 20.5889 45.7575 25.742 51.6003C26.6008 52.6692 28.0322 53.2862 29.4636 53.2862C30.9904 53.2862 32.3264 52.6692 33.2806 51.6003C37.1931 47.1259 47.3083 35.6872 53.7019 28.3355C57.9007 23.5244 59.2367 16.9567 57.0418 11.0404C55.515 6.9535 52.2705 3.67325 48.0718 2.02904C43.873 0.384832 39.1017 0.534554 34.9983 2.43918L29.4636 4.99988L24.0243 2.43918C19.9209 0.534554 15.1496 0.384832 10.9508 2.02904C6.75208 3.67325 3.50758 6.9535 1.98076 11.0404C-0.214054 16.9567 1.02649 23.5244 5.32068 28.3355ZM29.9407 47.1422C29.8453 47.2702 29.6544 47.3445 29.4636 47.3445C29.3682 47.3445 29.1773 47.2702 29.0819 47.1422C26.0282 43.7613 9.51945 24.9418 9.51945 24.9418C6.56123 21.5608 5.70239 16.9449 7.22921 12.7863C8.18348 10.1285 10.2829 7.99518 13.0502 6.92536C15.8176 5.85644 18.8712 5.95355 21.5432 7.19306C25.2648 8.9144 28.3185 10.3236 28.3185 10.3236C29.0819 10.6829 29.9407 10.6829 30.7041 10.3236L37.4794 7.19306C40.0559 5.95355 43.205 5.85644 45.9724 6.92536C48.6443 7.99518 50.8391 10.1285 51.7934 12.7863C53.3202 16.9449 52.4614 21.5608 49.4077 24.9418C49.4077 24.9418 32.8989 43.7613 29.9407 47.1422Z" fill="black"/>
</svg>
