<svg width="24" height="24" viewBox="0 0 57 55" xmlns="http://www.w3.org/2000/svg">
<path fill="#CACACA" fill-rule="evenodd" clip-rule="evenodd" d="M25.4793 15.0376L2.53887 39.3014C-0.89648 42.922 -0.734106 48.466 2.88256 51.9051C6.50877 55.3532 12.3393 55.4985 16.1468 52.2409L41.6637 30.427C45.5762 30.4542 49.4507 29.0931 52.3135 26.3437C58.2299 20.736 58.0391 11.3626 51.7409 5.41914C45.5287 -0.515253 35.6708 -0.687658 29.7734 4.92007C26.882 7.66949 25.4506 11.3172 25.4793 15.0376ZM37.3218 27.5324L12.6921 48.5931C10.9267 50.0994 8.2166 50.0359 6.53709 48.4298C4.85759 46.8328 4.79124 44.2649 6.37532 42.5862C12.7403 35.8623 24.1057 23.8393 28.524 19.1662L37.3218 27.5324ZM42.4749 25.4907L30.6711 14.2663C30.8237 12.0976 31.7301 10.0105 33.4287 8.3953C37.3698 4.64774 43.9446 4.92903 48.1147 8.89437C52.3135 12.8597 52.5998 19.1208 48.6873 22.8683C46.9505 24.4744 44.7556 25.3455 42.4749 25.4907Z"/>
</svg>
