<svg width="49" height="50" viewBox="0 0 49 50" fill="none" xmlns="http://www.w3.org/2000/svg">
<path fill-rule="evenodd" clip-rule="evenodd" d="M37.855 21.1588V2.59737C37.855 1.67867 38.5693 0.932251 39.5514 0.932251H46.5153C47.4081 0.932251 48.1223 1.67867 48.1223 2.59737V47.4055C48.1223 48.3242 47.4081 49.0697 46.5153 49.0697H39.5514C38.5693 49.0697 37.855 48.3242 37.855 47.4055V28.844L3.92835 48.4403C3.12483 48.9019 2.14274 48.9019 1.33921 48.4403C0.535685 47.9787 0 47.1261 0 46.2029C0 36.4821 0 13.5209 0 3.79908C0 2.87681 0.535685 2.0242 1.33921 1.56262C2.14274 1.10104 3.12483 1.10097 3.92835 1.56166L37.855 21.1588Z" fill="black"/>
</svg>
