<svg width="24" height="24" viewBox="0 0 51 47" fill="none" xmlns="http://www.w3.org/2000/svg">
<path fill="#CACACA" fill-rule="evenodd" clip-rule="evenodd" d="M48.095 41.4707C48.095 41.2892 47.9421 41.1531 47.7513 41.1531C43.7911 41.1531 6.28846 41.1531 2.32826 41.1531C2.14695 41.1531 1.99426 41.2892 1.99426 41.4707C1.99426 42.4144 1.99426 45.1729 1.99426 46.1257C1.99426 46.2981 2.14695 46.4433 2.32826 46.4433C6.28846 46.4433 43.7911 46.4433 47.7513 46.4433C47.9421 46.4433 48.095 46.2981 48.095 46.1257V41.4707ZM48.095 27.0794C48.095 26.907 47.9421 26.7618 47.7513 26.7618C43.7911 26.7618 6.28846 26.7618 2.32826 26.7618C2.14695 26.7618 1.99426 26.907 1.99426 27.0794C1.99426 28.0321 1.99426 30.7907 1.99426 31.7344C1.99426 31.9068 2.14695 32.052 2.32826 32.052C6.28846 32.052 43.7911 32.052 47.7513 32.052C47.9421 32.052 48.095 31.9068 48.095 31.7344V27.0794ZM0 8.77719C0 4.18575 3.91249 0.465271 8.73152 0.465271H41.3957C46.2148 0.465271 50.175 4.18575 50.175 8.77719C50.175 13.3596 46.2148 17.0799 41.3957 17.0799H8.73152C3.91249 17.0799 0 13.3596 0 8.77719ZM5.56307 8.77719C5.56307 7.10757 6.98522 5.76452 8.73152 5.76452H41.3957C43.142 5.76452 44.5642 7.10757 44.5642 8.77719C44.5642 10.4377 43.142 11.7897 41.3957 11.7897H8.73152C6.98522 11.7897 5.56307 10.4377 5.56307 8.77719Z" />
</svg>
