<svg width="48" height="55" viewBox="0 0 48 55" fill="none" xmlns="http://www.w3.org/2000/svg">
<path fill-rule="evenodd" clip-rule="evenodd" d="M41.0695 22.5351C41.1649 22.5351 41.2604 22.5804 41.3558 22.6712C41.4512 22.7528 41.4512 22.8616 41.4512 22.9795C41.4512 26.1282 41.4512 45.1383 41.4512 48.2869C41.4512 48.5319 41.2604 48.7316 41.0695 48.7316C37.157 48.7316 10.8193 48.7316 6.90683 48.7316C6.8114 48.7316 6.71598 48.6862 6.62055 48.6045C6.52512 48.5229 6.52512 48.4049 6.52512 48.2869C6.52512 45.1383 6.52512 26.1282 6.52512 22.9795C6.52512 22.7345 6.71598 22.5351 6.90683 22.5351C8.2428 22.5351 11.6782 22.5351 12.8233 22.5351C13.0141 22.5351 13.1096 22.3899 13.1096 22.2175C13.1096 21.2738 13.1096 18.5061 13.1096 17.5624C13.1096 17.39 13.0141 17.2449 12.8233 17.2449H4.23489C3.37605 17.2449 2.51721 17.5715 1.84922 18.1613C1.27666 18.742 0.894958 19.5406 0.894958 20.3663C0.894958 23.9959 0.894958 47.2707 0.894958 50.9003C0.894958 51.7351 1.27666 52.5246 1.84922 53.1144C2.51721 53.6951 3.37605 54.0308 4.23489 54.0308C8.52908 54.0308 39.4473 54.0308 43.7415 54.0308C44.6003 54.0308 45.4591 53.6951 46.1271 53.1144C46.6997 52.5246 47.0814 51.7351 47.0814 50.9003C47.0814 47.2707 47.0814 23.9959 47.0814 20.3663C47.0814 19.5406 46.6997 18.742 46.1271 18.1613C45.4591 17.5715 44.6003 17.2449 43.7415 17.2449C43.7415 17.2449 36.7753 17.2449 35.1531 17.2449C35.0576 17.2449 34.9622 17.2812 34.9622 17.3356C34.8668 17.3991 34.8668 17.4808 34.8668 17.5624C34.8668 18.5061 34.8668 21.2738 34.8668 22.2175C34.8668 22.2991 34.8668 22.3808 34.9622 22.4443C34.9622 22.4988 35.0576 22.5351 35.1531 22.5351C36.2982 22.5351 39.7335 22.5351 41.0695 22.5351ZM23.9882 0.866302C24.0836 0.866302 24.179 0.902598 24.2745 0.957042C25.8013 2.46332 34.7714 10.9384 34.7714 10.9384C35.8211 11.9729 35.8211 13.6516 34.7714 14.6861C33.7217 15.6025 32.2903 15.7022 31.1452 14.9944V14.9491L31.0497 14.94C30.9543 14.8584 30.8589 14.7768 30.7635 14.6861L27.1372 11.247C27.1372 11.1835 27.0418 11.1653 26.9464 11.2016C26.851 11.2379 26.7555 11.3195 26.7555 11.4102C26.7555 14.2957 26.7555 27.1989 26.7555 27.1989C26.7555 28.6599 25.515 29.8487 23.9882 29.8487C22.4613 29.8487 21.2208 28.6691 21.2208 27.2082C21.2208 27.2082 21.2208 14.323 21.2208 11.4465C21.2208 11.3558 21.1254 11.265 21.03 11.2287C20.9345 11.1924 20.8391 11.2198 20.7437 11.2833L17.2129 14.6861C17.1175 14.7768 17.022 14.8584 16.9266 14.94L16.8312 14.9854V14.9944C15.6861 15.7022 14.2547 15.6025 13.3004 14.6861C12.1553 13.6516 12.1553 11.9729 13.3004 10.9384C13.3004 10.9384 22.1751 2.46332 23.7973 0.957042C23.7973 0.902598 23.8927 0.866302 23.9882 0.866302Z" fill="black"/>
</svg>
