<svg width="54" height="55" viewBox="0 0 54 55" fill="none" xmlns="http://www.w3.org/2000/svg">
<path fill-rule="evenodd" clip-rule="evenodd" d="M25.5406 0.867288C25.6455 0.858214 25.7504 0.912693 25.8076 0.994359C25.8554 1.0851 25.8554 1.19392 25.7981 1.28466C23.0308 5.21369 21.418 9.93224 21.418 15.0137C21.418 28.6519 33.0601 39.7313 47.4122 39.7313C49.4353 39.7313 51.4107 39.5044 53.3097 39.087C53.4146 39.0689 53.5195 39.1052 53.5863 39.1778C53.653 39.2595 53.6722 39.3683 53.6245 39.4681C49.0058 48.2789 39.425 54.3404 28.3746 54.3404C12.8201 54.3404 0.195129 42.3264 0.195129 27.5358C0.195129 13.6526 11.3125 2.22839 25.5406 0.867288Z" fill="black"/>
</svg>
