<svg width="62" height="54" viewBox="0 0 62 54" fill="none" xmlns="http://www.w3.org/2000/svg">
<path fill-rule="evenodd" clip-rule="evenodd" d="M27.5013 31.1433C27.1196 32.205 26.2608 32.949 25.3065 33.6567C23.7797 34.7547 21.9666 35.6985 20.1535 36.8509C15.9547 39.6185 11.9468 43.3569 11.9468 51.3329V53.9734H61.1869V51.3329C61.1869 43.3569 57.2744 39.6185 52.9802 36.8509C51.1671 35.6985 49.354 34.7547 47.8272 33.6567C46.8729 32.949 46.0141 32.205 45.6324 31.1433C45.7278 30.9891 45.8232 30.7169 46.0141 30.5354C46.3958 29.9184 46.9683 29.265 47.5409 28.5209C49.354 26.2252 51.2625 23.2944 51.2625 19.2927C51.2625 11.0989 44.5827 5.28248 36.6623 5.22804H36.5668C28.6464 5.22804 21.8712 11.0717 21.8712 19.2927C21.8712 23.3034 23.7797 26.2344 25.5928 28.5392C26.1654 29.2741 26.7379 29.9275 27.1196 30.5354C27.3105 30.7169 27.4059 30.9891 27.5013 31.1433ZM17.7678 48.6834C18.7221 43.8198 22.2529 41.8053 25.4019 39.9451C28.9327 37.8581 31.9864 35.7801 32.9406 32.332C33.4178 30.862 33.0361 29.2559 31.7001 27.5137C30.3641 25.6354 27.5013 23.2762 27.5013 19.2927C27.5013 14.175 31.6047 10.5181 36.5668 10.5181H36.6623C41.529 10.5544 45.7278 14.1931 45.7278 19.2927C45.7278 23.2671 42.7696 25.6263 41.4336 27.5137C40.1931 29.2559 39.7159 30.862 40.1931 32.332C41.2427 35.7801 44.201 37.8581 47.7317 39.9451C50.8808 41.8053 54.4116 43.8198 55.3659 48.6834H17.7678ZM12.8056 7.49654V0.808899H7.27091V7.49654H0.209351V12.7866H7.27091V19.4742H12.8056V12.7866H19.8672V7.49654H12.8056Z" fill="black"/>
</svg>
