<svg width="54" height="52" viewBox="0 0 54 52" fill="none" xmlns="http://www.w3.org/2000/svg">
<path fill-rule="evenodd" clip-rule="evenodd" d="M16.5713 27.6446C16.1896 28.797 15.2353 29.6046 14.1856 30.3668C12.5633 31.5102 10.6548 32.4991 8.84171 33.706C4.45209 36.5733 0.348755 40.4479 0.348755 48.7234V51.3731H34.416L30.8852 46.3371L6.16977 46.0739C7.02861 40.8563 10.8457 38.7058 14.1856 36.7367C17.8118 34.5771 20.9609 32.4356 22.0106 28.8514C22.4877 27.3542 22.0106 25.7118 20.77 23.9333C19.2432 21.9461 16.285 19.4689 16.285 15.2767C16.285 9.86861 20.6746 6.00316 25.8276 6.00316H25.9231C31.1715 6.03946 35.4657 9.88676 35.4657 15.2767C35.4657 19.4507 32.5075 21.9371 31.0761 23.9243C29.7401 25.7119 29.263 27.3542 29.7401 28.8514C30.1218 30.2397 30.8852 31.4194 31.8395 32.4538L33.5572 34.4772L37.8514 31.0564L36.0383 29.0328C35.6566 28.6245 35.3703 28.1709 35.1794 27.6446C35.2749 27.4813 35.4657 27.1545 35.5611 26.9458C36.0383 26.3106 36.7063 25.6211 37.2788 24.8498C39.1873 22.4542 41.0959 19.4235 41.0959 15.2767C41.0959 6.79253 34.1297 0.758362 26.0185 0.703918H25.9231C17.621 0.703918 10.6548 6.75623 10.6548 15.2767C10.6548 19.4417 12.5633 22.4724 14.4719 24.8588C15.1399 25.6301 15.7124 26.3199 16.1896 26.955C16.285 27.1637 16.4758 27.4813 16.5713 27.6446ZM48.1574 34.5226H46.1535C41.9547 34.5226 38.5194 37.7621 38.5194 41.7547C38.5194 45.7472 41.9547 48.9866 46.1535 48.9866C50.3522 48.9866 53.7876 45.7472 53.7876 41.7547C53.7876 41.5823 53.7876 41.4099 53.6922 41.2466C53.7876 41.0742 53.7876 40.9107 53.7876 40.7293V23.7882C53.7876 22.3273 52.5471 21.1385 51.0202 21.1385C49.4934 21.1385 48.1574 22.3273 48.1574 23.7882V34.5226ZM48.1574 39.8128H46.1535C45.0084 39.8128 44.1495 40.684 44.1495 41.7547C44.1495 42.8254 45.0084 43.6966 46.1535 43.6966C47.2986 43.6966 48.1574 42.8254 48.1574 41.7547C48.1574 41.5823 48.2529 41.4099 48.2529 41.2466C48.2529 41.0742 48.1574 40.9107 48.1574 40.7293V39.8128Z" fill="black"/>
</svg>
