<svg width="24" height="24" viewBox="0 0 58 55" fill="none" xmlns="http://www.w3.org/2000/svg">
<path fill-rule="evenodd" clip-rule="evenodd" d="M0.30078 24.0088C-0.0236701 26.1412 -0.0045848 28.3189 0.348493 30.4694C0.882882 33.7632 2.95379 36.6397 5.98835 38.3184C14.3 42.9189 33.9863 53.8168 33.9863 53.8168C34.8547 54.2887 35.9144 54.2887 36.7828 53.8168C37.6416 53.345 38.1762 52.4738 38.1762 51.5301V2.64857C38.1762 1.70487 37.6416 0.824625 36.7828 0.352777C35.9144 -0.11907 34.8547 -0.119106 33.9863 0.361816C33.9863 0.361816 14.3 11.2507 5.98835 15.8512C2.95379 17.5299 0.882882 20.4154 0.348493 23.7093L0.30078 24.0088ZM42.7566 7.40337C42.7566 7.30356 42.8043 7.20368 42.8998 7.14923C42.9856 7.08571 43.0996 7.0766 43.195 7.1129C51.7261 10.1255 57.7952 17.9381 57.7952 27.0847C57.7952 36.2404 51.7261 44.0441 43.195 47.0658C43.0996 47.102 42.9856 47.0839 42.8998 47.0294C42.8139 46.9659 42.7566 46.8751 42.7566 46.7753C42.7566 45.6682 42.7566 42.8282 42.7566 41.8392C42.7566 41.6305 42.8805 41.4308 43.0809 41.3401C48.5107 38.6814 52.2322 33.2913 52.2322 27.0847C52.2322 20.8781 48.5107 15.4972 43.0809 12.8386C42.8805 12.7387 42.7566 12.5482 42.7566 12.3304C42.7566 11.3414 42.7566 8.50133 42.7566 7.40337ZM5.84521 24.544V24.5259C6.12195 22.8109 7.21026 21.3047 8.78479 20.4336L32.6026 7.24901C32.6026 7.24901 32.6026 40.9135 32.6026 46.2218C32.6026 46.367 32.5268 46.5031 32.3932 46.5757C32.2596 46.6483 32.107 46.6483 31.9734 46.5757C25.5989 43.0459 14.5008 36.9119 8.78479 33.7451C7.21026 32.874 6.12195 31.3677 5.84521 29.6527C5.56847 27.9559 5.56847 26.2228 5.84521 24.5259V24.544ZM42.7566 17.6297C42.7566 17.5027 42.833 17.3846 42.9475 17.3302C43.0715 17.2757 43.2145 17.2848 43.3195 17.3665C46.3636 19.6169 48.3294 23.1375 48.3294 27.0847C48.3294 31.041 46.3636 34.5527 43.3195 36.8121C43.2145 36.8847 43.0715 36.8937 42.9475 36.8393C42.833 36.7848 42.7566 36.6669 42.7566 36.549C42.7566 33.5001 42.7566 20.6786 42.7566 17.6297ZM0.30078 23.9996L0.339547 23.7273C0.330004 23.8181 0.310323 23.9088 0.30078 23.9996L0.186716 24.6984L0.30078 24.0088V23.9996Z" fill="#CACACA"/>
</svg>
